<?xml version="1.0" encoding="utf-8"?>
<!-- Generator: Adobe Illustrator 23.0.5, SVG Export Plug-In . SVG Version: 6.00 Build 0)  -->
<svg version="1.1" id="Layer_1" xmlns="http://www.w3.org/2000/svg" xmlns:xlink="http://www.w3.org/1999/xlink" x="0px" y="0px"
	 viewBox="0 0 444.2 80" style="enable-background:new 0 0 444.2 80;" xml:space="preserve">
<style type="text/css">
	.st0{fill:#231F20;}
</style>
<title>Logo</title>
<path class="st0" d="M45.3,51.3L61.7,80H46.4L23.2,39.9L35.1,40c7.3-0.1,13.3-6.1,13.3-13.4c0-3.5-1.4-6.9-4-9.3
	c-2.4-2.5-5.8-4-9.3-3.9H8.4l-1.5-1.5L0,0h35.1c14.7,0,26.6,11.9,26.6,26.6c0.1,5.4-1.6,10.7-4.7,15.1C54.2,46,50.1,49.4,45.3,51.3z
	"/>
<path class="st0" d="M114.4,66.6L101.1,80V0l13.3,13.2V66.6z"/>
<path class="st0" d="M268.7,40l40,40h-18.8l-34.6-34.4l-5.6-5.5l5.6-5.6L289.9,0h18.8L268.7,40z M255.3,34.5L289.9,0L255.3,34.5z
	 M289.9,80l-34.6-34.4L289.9,80z"/>
<path class="st0" d="M206.8,66.6l13.4,13.3h-80l13.2-13.3H206.8z"/>
<path class="st0" d="M153.6,13.4L140.2,0.1h80L207,13.4H153.6z"/>
<polygon class="st0" points="201.6,0 178.6,23.2 178.7,42 220.4,0 "/>
<polygon class="st0" points="432,48.7 419.7,64.3 431.7,79.7 432,80 432.2,79.7 444.2,64.3 "/>
<polygon class="st0" points="381.8,25.7 361.7,0 344.9,0 373.4,36.4 "/>
<polygon class="st0" points="412.2,14.3 396.8,14.3 396.7,14.3 345.2,80 362.3,80 385,50.9 393.5,40 413.5,14.3 "/>
</svg>
