<svg width="320" height="448" viewBox="0 0 320 448" fill="none" xmlns="http://www.w3.org/2000/svg">
<path d="M279 0C290.941 0.157376 315.9 28.8137 320 134.704V423C320 436.807 308.807 448 295 448H40.8037C28.9196 447.842 4.08029 419.123 0 313V25C6.18527e-06 11.1929 11.1929 0 25 0H279ZM0.948242 429.844C1.13964 430.518 1.36023 431.18 1.60547 431.829C1.36022 431.18 1.13966 430.518 0.948242 429.844ZM318.381 16.1348C318.488 16.4173 318.591 16.7019 318.688 16.9893C318.591 16.7019 318.488 16.4173 318.381 16.1348ZM2.39648 433.692C2.41738 433.736 2.43686 433.781 2.45801 433.825C2.43686 433.781 2.41738 433.736 2.39648 433.692Z" fill="#032E38"/>
<path d="M34.2383 64.264C35.9236 64.264 37.3316 64.5573 38.4623 65.144C39.6036 65.7307 40.4569 66.5093 41.0223 67.48C41.5983 68.44 41.8863 69.4853 41.8863 70.616C41.8863 71.512 41.7316 72.392 41.4223 73.256C41.1236 74.1093 40.6276 75.016 39.9343 75.976C39.2409 76.9253 38.3183 77.9813 37.1663 79.144C36.0249 80.3067 34.6116 81.64 32.9263 83.144H42.3983L41.8542 87H27.1183V83.416C28.5796 82.008 29.8489 80.76 30.9263 79.672C32.0036 78.584 32.9103 77.6187 33.6463 76.776C34.3929 75.9333 34.9903 75.1813 35.4383 74.52C35.8969 73.8587 36.2276 73.2507 36.4303 72.696C36.6329 72.1307 36.7343 71.5867 36.7343 71.064C36.7343 70.168 36.4729 69.4587 35.9503 68.936C35.4383 68.4133 34.7076 68.152 33.7583 68.152C32.9156 68.152 32.1849 68.328 31.5663 68.68C30.9476 69.032 30.3503 69.6027 29.7743 70.392L26.6703 68.056C27.5023 66.904 28.5263 65.9867 29.7423 65.304C30.9583 64.6107 32.4569 64.264 34.2383 64.264Z" fill="#F6DF8E"/>
<path d="M34.9999 51.6666C44.2046 51.6666 51.6666 44.2046 51.6666 34.9999C51.6666 25.7952 44.2046 18.3333 34.9999 18.3333C25.7952 18.3333 18.3333 25.7952 18.3333 34.9999C18.3333 44.2046 25.7952 51.6666 34.9999 51.6666Z" stroke="#F6DF8E" stroke-width="1.5" stroke-linecap="round" stroke-linejoin="round"/>
<path d="M28.3333 20H30C26.75 29.7333 26.75 40.2667 30 50H28.3333" stroke="#F6DF8E" stroke-width="1.5" stroke-linecap="round" stroke-linejoin="round"/>
<path d="M40 20C43.25 29.7333 43.25 40.2667 40 50" stroke="#F6DF8E" stroke-width="1.5" stroke-linecap="round" stroke-linejoin="round"/>
<path d="M20 41.6667V40C29.7333 43.25 40.2667 43.25 50 40V41.6667" stroke="#F6DF8E" stroke-width="1.5" stroke-linecap="round" stroke-linejoin="round"/>
<path d="M20 30C29.7333 26.75 40.2667 26.75 50 30" stroke="#F6DF8E" stroke-width="1.5" stroke-linecap="round" stroke-linejoin="round"/>
<path d="M68.472 34.4C68.472 33.6533 68.408 33.0453 68.28 32.576C68.1573 32.1067 67.984 31.744 67.76 31.488C67.5413 31.232 67.2827 31.056 66.984 30.96C66.6853 30.864 66.3627 30.816 66.016 30.816H65.456V38.104H66.016C66.3787 38.104 66.7093 38.048 67.008 37.936C67.312 37.8187 67.5733 37.624 67.792 37.352C68.0107 37.0747 68.1787 36.696 68.296 36.216C68.4133 35.736 68.472 35.1307 68.472 34.4ZM71.192 34.4C71.192 35.3013 71.096 36.0747 70.904 36.72C70.712 37.36 70.4427 37.8933 70.096 38.32C69.7547 38.7467 69.3573 39.0827 68.904 39.328C68.4507 39.5733 67.9627 39.7467 67.44 39.848C66.9173 39.9493 66.3787 40 65.824 40H62.832V28.912H65.632C66.3413 28.912 67.0267 28.9867 67.688 29.136C68.3547 29.28 68.9493 29.5493 69.472 29.944C70 30.3333 70.4187 30.888 70.728 31.608C71.0373 32.3227 71.192 33.2533 71.192 34.4ZM74.4757 36.488C74.5344 36.952 74.6544 37.328 74.8357 37.616C75.0224 37.8987 75.2597 38.1067 75.5477 38.24C75.8358 38.368 76.1584 38.432 76.5157 38.432C76.9051 38.432 77.2811 38.368 77.6438 38.24C78.0064 38.112 78.3557 37.9413 78.6918 37.728L79.7078 39.104C79.3078 39.4453 78.8224 39.7253 78.2517 39.944C77.6864 40.1627 77.0411 40.272 76.3158 40.272C75.3451 40.272 74.5317 40.08 73.8757 39.696C73.2197 39.3067 72.7264 38.7733 72.3957 38.096C72.0651 37.4187 71.8997 36.64 71.8997 35.76C71.8997 34.9227 72.0597 34.1627 72.3797 33.48C72.6997 32.792 73.1664 32.2453 73.7797 31.84C74.3984 31.4293 75.1531 31.224 76.0437 31.224C76.8544 31.224 77.5557 31.3973 78.1477 31.744C78.7451 32.0907 79.2064 32.5893 79.5317 33.24C79.8624 33.8907 80.0278 34.672 80.0278 35.584C80.0278 35.728 80.0224 35.8827 80.0118 36.048C80.0064 36.2133 79.9957 36.36 79.9797 36.488H74.4757ZM76.0437 32.92C75.5904 32.92 75.2251 33.0827 74.9477 33.408C74.6704 33.7333 74.5024 34.2533 74.4437 34.968H77.5637C77.5584 34.3493 77.4384 33.8533 77.2038 33.48C76.9691 33.1067 76.5824 32.92 76.0437 32.92ZM86.1515 31.224C86.8928 31.224 87.4902 31.408 87.9435 31.776C88.3968 32.144 88.7275 32.664 88.9355 33.336C89.1488 34.008 89.2555 34.8053 89.2555 35.728C89.2555 36.6027 89.1275 37.384 88.8715 38.072C88.6155 38.7547 88.2448 39.2933 87.7595 39.688C87.2742 40.0773 86.6848 40.272 85.9915 40.272C85.1648 40.272 84.4928 39.976 83.9755 39.384V43.28L81.4475 43.544V31.504H83.6875L83.7995 32.456C84.1462 32.0133 84.5248 31.6987 84.9355 31.512C85.3462 31.32 85.7515 31.224 86.1515 31.224ZM85.3675 33.088C85.0742 33.088 84.8155 33.176 84.5915 33.352C84.3675 33.528 84.1622 33.768 83.9755 34.072V37.656C84.1515 37.9173 84.3355 38.1093 84.5275 38.232C84.7248 38.3547 84.9568 38.416 85.2235 38.416C85.6715 38.416 86.0208 38.2133 86.2715 37.808C86.5222 37.3973 86.6475 36.7147 86.6475 35.76C86.6475 35.056 86.5968 34.512 86.4955 34.128C86.3942 33.7387 86.2475 33.4693 86.0555 33.32C85.8635 33.1653 85.6342 33.088 85.3675 33.088ZM95.0432 28.128V37.328C95.0432 37.6693 95.1392 37.9147 95.3312 38.064C95.5286 38.208 95.7979 38.28 96.1392 38.28C96.3579 38.28 96.5686 38.256 96.7712 38.208C96.9739 38.1547 97.1632 38.0933 97.3392 38.024L97.9472 39.712C97.6592 39.8613 97.3126 39.992 96.9072 40.104C96.5019 40.216 96.0299 40.272 95.4912 40.272C94.4672 40.272 93.7152 39.9787 93.2352 39.392C92.7552 38.8 92.5152 38.008 92.5152 37.016V29.856H90.0112V28.128H95.0432ZM103.455 31.224C104.33 31.224 105.074 31.4107 105.687 31.784C106.3 32.1573 106.77 32.6827 107.095 33.36C107.42 34.032 107.583 34.8213 107.583 35.728C107.583 36.672 107.418 37.4853 107.087 38.168C106.762 38.8453 106.292 39.3653 105.679 39.728C105.066 40.0907 104.324 40.272 103.455 40.272C102.591 40.272 101.85 40.0933 101.231 39.736C100.618 39.3787 100.146 38.8613 99.815 38.184C99.4897 37.5067 99.327 36.6933 99.327 35.744C99.327 34.8427 99.4897 34.0533 99.815 33.376C100.146 32.6987 100.618 32.1707 101.231 31.792C101.85 31.4133 102.591 31.224 103.455 31.224ZM103.455 33.088C102.938 33.088 102.554 33.3013 102.303 33.728C102.058 34.1493 101.935 34.8213 101.935 35.744C101.935 36.6827 102.058 37.3627 102.303 37.784C102.554 38.2053 102.938 38.416 103.455 38.416C103.972 38.416 104.354 38.2053 104.599 37.784C104.85 37.3627 104.975 36.6773 104.975 35.728C104.975 34.8107 104.85 34.1413 104.599 33.72C104.354 33.2987 103.972 33.088 103.455 33.088ZM116.971 31.504L114.139 40C113.888 40.752 113.555 41.3813 113.139 41.888C112.728 42.4 112.213 42.7947 111.595 43.072C110.981 43.3493 110.243 43.512 109.379 43.56L109.091 41.776C109.651 41.7067 110.101 41.6027 110.443 41.464C110.789 41.3253 111.067 41.136 111.275 40.896C111.488 40.6613 111.672 40.3627 111.827 40H110.963L108.267 31.504H110.939L112.587 38.384L114.379 31.504H116.971ZM124.382 31.224C124.788 31.224 125.121 31.3093 125.382 31.48C125.644 31.6507 125.838 31.92 125.966 32.288C126.094 32.6507 126.158 33.1253 126.158 33.712V40H123.99V34C123.99 33.7013 123.961 33.4907 123.902 33.368C123.849 33.2453 123.737 33.184 123.566 33.184C123.433 33.184 123.294 33.224 123.15 33.304C123.012 33.3787 122.857 33.5227 122.686 33.736V40H120.91V34C120.91 33.7013 120.881 33.4907 120.822 33.368C120.769 33.2453 120.657 33.184 120.486 33.184C120.353 33.184 120.214 33.224 120.07 33.304C119.932 33.3787 119.777 33.5227 119.606 33.736V40H117.406V31.504H119.262L119.43 32.328C119.697 31.9653 119.966 31.6907 120.238 31.504C120.51 31.3173 120.833 31.224 121.206 31.224C121.526 31.224 121.798 31.3067 122.022 31.472C122.252 31.632 122.414 31.8853 122.51 32.232C122.766 31.9333 123.049 31.6907 123.358 31.504C123.668 31.3173 124.009 31.224 124.382 31.224ZM129.458 36.488C129.517 36.952 129.637 37.328 129.818 37.616C130.005 37.8987 130.242 38.1067 130.53 38.24C130.818 38.368 131.141 38.432 131.498 38.432C131.888 38.432 132.264 38.368 132.626 38.24C132.989 38.112 133.338 37.9413 133.674 37.728L134.69 39.104C134.29 39.4453 133.805 39.7253 133.234 39.944C132.669 40.1627 132.024 40.272 131.298 40.272C130.328 40.272 129.514 40.08 128.858 39.696C128.202 39.3067 127.709 38.7733 127.378 38.096C127.048 37.4187 126.882 36.64 126.882 35.76C126.882 34.9227 127.042 34.1627 127.362 33.48C127.682 32.792 128.149 32.2453 128.762 31.84C129.381 31.4293 130.136 31.224 131.026 31.224C131.837 31.224 132.538 31.3973 133.13 31.744C133.728 32.0907 134.189 32.5893 134.514 33.24C134.845 33.8907 135.01 34.672 135.01 35.584C135.01 35.728 135.005 35.8827 134.994 36.048C134.989 36.2133 134.978 36.36 134.962 36.488H129.458ZM131.026 32.92C130.573 32.92 130.208 33.0827 129.93 33.408C129.653 33.7333 129.485 34.2533 129.426 34.968H132.546C132.541 34.3493 132.421 33.8533 132.186 33.48C131.952 33.1067 131.565 32.92 131.026 32.92ZM136.43 40V31.504H138.638L138.814 32.488C139.193 32.0613 139.593 31.744 140.014 31.536C140.435 31.328 140.915 31.224 141.454 31.224C142.179 31.224 142.75 31.4453 143.166 31.888C143.582 32.3307 143.79 32.9547 143.79 33.76V40H141.262V34.488C141.262 34.1413 141.238 33.8667 141.19 33.664C141.142 33.456 141.057 33.3093 140.934 33.224C140.817 33.1333 140.654 33.088 140.446 33.088C140.27 33.088 140.097 33.128 139.926 33.208C139.761 33.2827 139.598 33.392 139.438 33.536C139.278 33.68 139.118 33.8533 138.958 34.056V40H136.43ZM153.242 39.504C152.911 39.7173 152.511 39.8987 152.042 40.048C151.572 40.1973 151.044 40.272 150.458 40.272C149.348 40.272 148.524 39.9893 147.986 39.424C147.447 38.8533 147.178 38.08 147.178 37.104V33.248H145.394V31.504H147.178V29.664L149.706 29.36V31.504H152.442L152.194 33.248H149.706V37.104C149.706 37.5253 149.802 37.8267 149.994 38.008C150.186 38.1893 150.492 38.28 150.914 38.28C151.212 38.28 151.484 38.2453 151.73 38.176C151.98 38.1013 152.204 38.008 152.402 37.896L153.242 39.504Z" fill="#F6DF8E"/>
<path d="M286.762 385.736C285.076 385.736 283.668 385.443 282.538 384.856C281.396 384.269 280.543 383.491 279.978 382.52C279.402 381.56 279.114 380.515 279.114 379.384C279.114 378.488 279.268 377.608 279.578 376.744C279.876 375.891 280.372 374.984 281.066 374.024C281.759 373.075 282.682 372.019 283.834 370.856C284.975 369.693 286.388 368.36 288.074 366.856H278.602L279.146 363H293.882V366.584C292.42 367.992 291.151 369.24 290.074 370.328C288.996 371.416 288.09 372.381 287.354 373.224C286.607 374.067 286.01 374.819 285.562 375.48C285.103 376.141 284.772 376.749 284.57 377.304C284.367 377.869 284.266 378.413 284.266 378.936C284.266 379.832 284.527 380.541 285.05 381.064C285.562 381.587 286.292 381.848 287.242 381.848C288.084 381.848 288.815 381.672 289.434 381.32C290.052 380.968 290.65 380.397 291.226 379.608L294.33 381.944C293.498 383.096 292.474 384.013 291.258 384.696C290.042 385.389 288.543 385.736 286.762 385.736Z" fill="#F6DF8E"/>
<path d="M251.528 413.6C251.528 414.347 251.592 414.955 251.72 415.424C251.843 415.893 252.016 416.256 252.24 416.512C252.459 416.768 252.717 416.944 253.016 417.04C253.315 417.136 253.637 417.184 253.984 417.184H254.544V409.896H253.984C253.621 409.896 253.291 409.952 252.992 410.064C252.688 410.181 252.427 410.376 252.208 410.648C251.989 410.925 251.821 411.304 251.704 411.784C251.587 412.264 251.528 412.869 251.528 413.6ZM248.808 413.6C248.808 412.699 248.904 411.925 249.096 411.28C249.288 410.64 249.557 410.107 249.904 409.68C250.245 409.253 250.643 408.917 251.096 408.672C251.549 408.427 252.037 408.253 252.56 408.152C253.083 408.051 253.621 408 254.176 408H257.168V419.088H254.368C253.659 419.088 252.973 419.013 252.312 418.864C251.645 418.72 251.051 418.451 250.528 418.056C250 417.667 249.581 417.112 249.272 416.392C248.963 415.677 248.808 414.747 248.808 413.6ZM245.524 411.512C245.466 411.048 245.346 410.672 245.164 410.384C244.978 410.101 244.74 409.893 244.452 409.76C244.164 409.632 243.842 409.568 243.484 409.568C243.095 409.568 242.719 409.632 242.356 409.76C241.994 409.888 241.644 410.059 241.308 410.272L240.292 408.896C240.692 408.555 241.178 408.275 241.748 408.056C242.314 407.837 242.959 407.728 243.684 407.728C244.655 407.728 245.468 407.92 246.124 408.304C246.78 408.693 247.274 409.227 247.604 409.904C247.935 410.581 248.1 411.36 248.1 412.24C248.1 413.077 247.94 413.837 247.62 414.52C247.3 415.208 246.834 415.755 246.22 416.16C245.602 416.571 244.847 416.776 243.956 416.776C243.146 416.776 242.444 416.603 241.852 416.256C241.255 415.909 240.794 415.411 240.468 414.76C240.138 414.109 239.972 413.328 239.972 412.416C239.972 412.272 239.978 412.117 239.988 411.952C239.994 411.787 240.004 411.64 240.02 411.512H245.524ZM243.956 415.08C244.41 415.08 244.775 414.917 245.052 414.592C245.33 414.267 245.498 413.747 245.556 413.032H242.436C242.442 413.651 242.562 414.147 242.796 414.52C243.031 414.893 243.418 415.08 243.956 415.08ZM233.849 416.776C233.107 416.776 232.51 416.592 232.057 416.224C231.603 415.856 231.273 415.336 231.064 414.664C230.851 413.992 230.745 413.195 230.745 412.272C230.745 411.397 230.873 410.616 231.128 409.928C231.384 409.245 231.755 408.707 232.241 408.312C232.726 407.923 233.315 407.728 234.009 407.728C234.835 407.728 235.507 408.024 236.025 408.616V404.72L238.553 404.456V416.496H236.313L236.201 415.544C235.854 415.987 235.475 416.301 235.065 416.488C234.654 416.68 234.249 416.776 233.849 416.776ZM234.633 414.912C234.926 414.912 235.185 414.824 235.409 414.648C235.633 414.472 235.838 414.232 236.025 413.928V410.344C235.849 410.083 235.665 409.891 235.473 409.768C235.275 409.645 235.043 409.584 234.777 409.584C234.329 409.584 233.979 409.787 233.729 410.192C233.478 410.603 233.353 411.285 233.353 412.24C233.353 412.944 233.403 413.488 233.505 413.872C233.606 414.261 233.753 414.531 233.945 414.68C234.137 414.835 234.366 414.912 234.633 414.912ZM224.957 419.872V410.672C224.957 410.331 224.861 410.085 224.669 409.936C224.471 409.792 224.202 409.72 223.861 409.72C223.642 409.72 223.431 409.744 223.229 409.792C223.026 409.845 222.837 409.907 222.661 409.976L222.053 408.288C222.341 408.139 222.687 408.008 223.093 407.896C223.498 407.784 223.97 407.728 224.509 407.728C225.533 407.728 226.285 408.021 226.765 408.608C227.245 409.2 227.485 409.992 227.485 410.984V418.144H229.989V419.872H224.957ZM216.545 416.776C215.67 416.776 214.926 416.589 214.313 416.216C213.7 415.843 213.23 415.317 212.905 414.64C212.58 413.968 212.417 413.179 212.417 412.272C212.417 411.328 212.582 410.515 212.913 409.832C213.238 409.155 213.708 408.635 214.321 408.272C214.934 407.909 215.676 407.728 216.545 407.728C217.409 407.728 218.15 407.907 218.769 408.264C219.382 408.621 219.854 409.139 220.185 409.816C220.51 410.493 220.673 411.307 220.673 412.256C220.673 413.157 220.51 413.947 220.185 414.624C219.854 415.301 219.382 415.829 218.769 416.208C218.15 416.587 217.409 416.776 216.545 416.776ZM216.545 414.912C217.062 414.912 217.446 414.699 217.697 414.272C217.942 413.851 218.065 413.179 218.065 412.256C218.065 411.317 217.942 410.637 217.697 410.216C217.446 409.795 217.062 409.584 216.545 409.584C216.028 409.584 215.646 409.795 215.401 410.216C215.15 410.637 215.025 411.323 215.025 412.272C215.025 413.189 215.15 413.859 215.401 414.28C215.646 414.701 216.028 414.912 216.545 414.912ZM203.029 416.496L205.861 408C206.112 407.248 206.445 406.619 206.861 406.112C207.272 405.6 207.787 405.205 208.405 404.928C209.019 404.651 209.757 404.488 210.621 404.44L210.909 406.224C210.349 406.293 209.899 406.397 209.557 406.536C209.211 406.675 208.933 406.864 208.725 407.104C208.512 407.339 208.328 407.637 208.173 408H209.037L211.733 416.496H209.061L207.413 409.616L205.621 416.496H203.029ZM195.618 416.776C195.212 416.776 194.879 416.691 194.618 416.52C194.356 416.349 194.162 416.08 194.034 415.712C193.906 415.349 193.842 414.875 193.842 414.288V408H196.01V414C196.01 414.299 196.039 414.509 196.098 414.632C196.151 414.755 196.263 414.816 196.434 414.816C196.567 414.816 196.706 414.776 196.85 414.696C196.988 414.621 197.143 414.477 197.314 414.264V408H199.09V414C199.09 414.299 199.119 414.509 199.178 414.632C199.231 414.755 199.343 414.816 199.514 414.816C199.647 414.816 199.786 414.776 199.93 414.696C200.068 414.621 200.223 414.477 200.394 414.264V408H202.594V416.496H200.738L200.57 415.672C200.303 416.035 200.034 416.309 199.762 416.496C199.49 416.683 199.167 416.776 198.794 416.776C198.474 416.776 198.202 416.693 197.978 416.528C197.748 416.368 197.586 416.115 197.49 415.768C197.234 416.067 196.951 416.309 196.642 416.496C196.332 416.683 195.991 416.776 195.618 416.776ZM190.542 411.512C190.483 411.048 190.363 410.672 190.182 410.384C189.995 410.101 189.758 409.893 189.47 409.76C189.182 409.632 188.859 409.568 188.502 409.568C188.112 409.568 187.736 409.632 187.374 409.76C187.011 409.888 186.662 410.059 186.326 410.272L185.31 408.896C185.71 408.555 186.195 408.275 186.766 408.056C187.331 407.837 187.976 407.728 188.702 407.728C189.672 407.728 190.486 407.92 191.142 408.304C191.798 408.693 192.291 409.227 192.622 409.904C192.952 410.581 193.118 411.36 193.118 412.24C193.118 413.077 192.958 413.837 192.638 414.52C192.318 415.208 191.851 415.755 191.238 416.16C190.619 416.571 189.864 416.776 188.974 416.776C188.163 416.776 187.462 416.603 186.87 416.256C186.272 415.909 185.811 415.411 185.486 414.76C185.155 414.109 184.99 413.328 184.99 412.416C184.99 412.272 184.995 412.117 185.006 411.952C185.011 411.787 185.022 411.64 185.038 411.512H190.542ZM188.974 415.08C189.427 415.08 189.792 414.917 190.07 414.592C190.347 414.267 190.515 413.747 190.574 413.032H187.454C187.459 413.651 187.579 414.147 187.814 414.52C188.048 414.893 188.435 415.08 188.974 415.08ZM183.57 408V416.496H181.362L181.186 415.512C180.807 415.939 180.407 416.256 179.986 416.464C179.565 416.672 179.085 416.776 178.546 416.776C177.821 416.776 177.25 416.555 176.834 416.112C176.418 415.669 176.21 415.045 176.21 414.24V408H178.738V413.512C178.738 413.859 178.762 414.133 178.81 414.336C178.858 414.544 178.943 414.691 179.066 414.776C179.183 414.867 179.346 414.912 179.554 414.912C179.73 414.912 179.903 414.872 180.074 414.792C180.239 414.717 180.402 414.608 180.562 414.464C180.722 414.32 180.882 414.147 181.042 413.944V408H183.57ZM166.758 408.496C167.089 408.283 167.489 408.101 167.958 407.952C168.428 407.803 168.956 407.728 169.542 407.728C170.652 407.728 171.476 408.011 172.014 408.576C172.553 409.147 172.822 409.92 172.822 410.896V414.752H174.606V416.496H172.822V418.336L170.294 418.64V416.496H167.558L167.806 414.752H170.294V410.896C170.294 410.475 170.198 410.173 170.006 409.992C169.814 409.811 169.508 409.72 169.086 409.72C168.788 409.72 168.516 409.755 168.27 409.824C168.02 409.899 167.796 409.992 167.598 410.104L166.758 408.496Z" fill="#F6DF8E"/>
<path d="M286 431.667C295.205 431.667 302.667 424.205 302.667 415C302.667 405.795 295.205 398.333 286 398.333C276.795 398.333 269.333 405.795 269.333 415C269.333 424.205 276.795 431.667 286 431.667Z" stroke="#F6DF8E" stroke-width="1.5" stroke-linecap="round" stroke-linejoin="round"/>
<path d="M279.333 400H281C277.75 409.733 277.75 420.267 281 430H279.333" stroke="#F6DF8E" stroke-width="1.5" stroke-linecap="round" stroke-linejoin="round"/>
<path d="M291 400C294.25 409.733 294.25 420.267 291 430" stroke="#F6DF8E" stroke-width="1.5" stroke-linecap="round" stroke-linejoin="round"/>
<path d="M271 421.667V420C280.733 423.25 291.267 423.25 301 420V421.667" stroke="#F6DF8E" stroke-width="1.5" stroke-linecap="round" stroke-linejoin="round"/>
<path d="M271 410C280.733 406.75 291.267 406.75 301 410" stroke="#F6DF8E" stroke-width="1.5" stroke-linecap="round" stroke-linejoin="round"/>
<path d="M126.696 326.912L125.4 338H122.672L121.864 330.072L120.976 338H118.2L117 326.912H119.456L119.832 335.76L120.752 328.192H123.008L123.864 335.76L124.416 326.912H126.696ZM131.012 329.224C131.887 329.224 132.631 329.411 133.244 329.784C133.857 330.157 134.327 330.683 134.652 331.36C134.977 332.032 135.14 332.821 135.14 333.728C135.14 334.672 134.975 335.485 134.644 336.168C134.319 336.845 133.849 337.365 133.236 337.728C132.623 338.091 131.881 338.272 131.012 338.272C130.148 338.272 129.407 338.093 128.788 337.736C128.175 337.379 127.703 336.861 127.372 336.184C127.047 335.507 126.884 334.693 126.884 333.744C126.884 332.843 127.047 332.053 127.372 331.376C127.703 330.699 128.175 330.171 128.788 329.792C129.407 329.413 130.148 329.224 131.012 329.224ZM131.012 331.088C130.495 331.088 130.111 331.301 129.86 331.728C129.615 332.149 129.492 332.821 129.492 333.744C129.492 334.683 129.615 335.363 129.86 335.784C130.111 336.205 130.495 336.416 131.012 336.416C131.529 336.416 131.911 336.205 132.156 335.784C132.407 335.363 132.532 334.677 132.532 333.728C132.532 332.811 132.407 332.141 132.156 331.72C131.911 331.299 131.529 331.088 131.012 331.088ZM136.576 338V336.304H137.696V331.184H136.576V329.504H139.624L140.088 331.416C140.392 330.685 140.778 330.141 141.248 329.784C141.722 329.427 142.301 329.248 142.984 329.248C143.272 329.248 143.528 329.272 143.752 329.32C143.976 329.363 144.186 329.424 144.384 329.504L143.616 331.592C143.461 331.549 143.306 331.517 143.152 331.496C142.997 331.475 142.826 331.464 142.64 331.464C142.085 331.464 141.597 331.691 141.176 332.144C140.76 332.597 140.442 333.173 140.224 333.872V336.304H141.904V338H136.576ZM142.328 333.056V330.576L142.704 329.504H144.384L143.912 333.056H142.328ZM150.491 325.864L153.019 326.128V338H150.779L150.651 337.064C150.417 337.395 150.105 337.68 149.715 337.92C149.326 338.155 148.854 338.272 148.299 338.272C147.595 338.272 147.011 338.083 146.547 337.704C146.089 337.325 145.745 336.797 145.515 336.12C145.291 335.437 145.179 334.64 145.179 333.728C145.179 332.853 145.315 332.077 145.587 331.4C145.859 330.723 146.249 330.192 146.755 329.808C147.262 329.419 147.865 329.224 148.563 329.224C148.942 329.224 149.294 329.291 149.619 329.424C149.945 329.557 150.235 329.752 150.491 330.008V325.864ZM149.243 331.072C148.806 331.072 148.454 331.28 148.187 331.696C147.921 332.107 147.787 332.789 147.787 333.744C147.787 334.443 147.843 334.987 147.955 335.376C148.067 335.76 148.222 336.029 148.419 336.184C148.617 336.339 148.843 336.416 149.099 336.416C149.382 336.416 149.638 336.328 149.867 336.152C150.102 335.976 150.31 335.736 150.491 335.432V331.768C150.315 331.549 150.129 331.379 149.931 331.256C149.734 331.133 149.505 331.072 149.243 331.072ZM160.223 330.528C160.223 330.133 160.148 329.808 159.999 329.552C159.855 329.291 159.634 329.099 159.335 328.976C159.042 328.848 158.671 328.784 158.223 328.784H157.327V332.408H158.359C158.748 332.408 159.082 332.341 159.359 332.208C159.636 332.075 159.85 331.869 159.999 331.592C160.148 331.315 160.223 330.96 160.223 330.528ZM162.927 330.52C162.927 331.379 162.743 332.088 162.375 332.648C162.007 333.208 161.492 333.627 160.831 333.904C160.17 334.176 159.402 334.312 158.527 334.312H157.327V338H154.703V326.912H158.191C159.695 326.912 160.86 327.211 161.687 327.808C162.514 328.405 162.927 329.309 162.927 330.52ZM164.067 338V336.304H165.187V331.184H164.067V329.504H167.115L167.579 331.416C167.883 330.685 168.27 330.141 168.739 329.784C169.214 329.427 169.792 329.248 170.475 329.248C170.763 329.248 171.019 329.272 171.243 329.32C171.467 329.363 171.678 329.424 171.875 329.504L171.107 331.592C170.952 331.549 170.798 331.517 170.643 331.496C170.488 331.475 170.318 331.464 170.131 331.464C169.576 331.464 169.088 331.691 168.667 332.144C168.251 332.597 167.934 333.173 167.715 333.872V336.304H169.395V338H164.067ZM169.819 333.056V330.576L170.195 329.504H171.875L171.403 333.056H169.819ZM175.343 334.488C175.401 334.952 175.521 335.328 175.703 335.616C175.889 335.899 176.127 336.107 176.415 336.24C176.703 336.368 177.025 336.432 177.383 336.432C177.772 336.432 178.148 336.368 178.511 336.24C178.873 336.112 179.223 335.941 179.559 335.728L180.575 337.104C180.175 337.445 179.689 337.725 179.119 337.944C178.553 338.163 177.908 338.272 177.183 338.272C176.212 338.272 175.399 338.08 174.743 337.696C174.087 337.307 173.593 336.773 173.263 336.096C172.932 335.419 172.767 334.64 172.767 333.76C172.767 332.923 172.927 332.163 173.247 331.48C173.567 330.792 174.033 330.245 174.647 329.84C175.265 329.429 176.02 329.224 176.911 329.224C177.721 329.224 178.423 329.397 179.015 329.744C179.612 330.091 180.073 330.589 180.399 331.24C180.729 331.891 180.895 332.672 180.895 333.584C180.895 333.728 180.889 333.883 180.879 334.048C180.873 334.213 180.863 334.36 180.847 334.488H175.343ZM176.911 330.92C176.457 330.92 176.092 331.083 175.815 331.408C175.537 331.733 175.369 332.253 175.311 332.968H178.431C178.425 332.349 178.305 331.853 178.071 331.48C177.836 331.107 177.449 330.92 176.911 330.92ZM185.722 336.464C186.144 336.464 186.482 336.397 186.738 336.264C187 336.131 187.13 335.931 187.13 335.664C187.13 335.483 187.08 335.331 186.978 335.208C186.877 335.085 186.682 334.968 186.394 334.856C186.106 334.744 185.68 334.611 185.114 334.456C184.597 334.317 184.138 334.141 183.738 333.928C183.344 333.715 183.034 333.44 182.81 333.104C182.592 332.768 182.482 332.349 182.482 331.848C182.482 331.341 182.624 330.891 182.906 330.496C183.189 330.101 183.605 329.792 184.154 329.568C184.704 329.339 185.376 329.224 186.17 329.224C186.928 329.224 187.586 329.323 188.146 329.52C188.712 329.712 189.2 329.957 189.61 330.256L188.602 331.744C188.25 331.525 187.872 331.352 187.466 331.224C187.061 331.091 186.653 331.024 186.242 331.024C185.832 331.024 185.525 331.08 185.322 331.192C185.125 331.299 185.026 331.461 185.026 331.68C185.026 331.824 185.077 331.949 185.178 332.056C185.285 332.157 185.482 332.264 185.77 332.376C186.058 332.483 186.48 332.616 187.034 332.776C187.584 332.931 188.061 333.109 188.466 333.312C188.877 333.515 189.194 333.787 189.418 334.128C189.642 334.464 189.754 334.909 189.754 335.464C189.754 336.083 189.57 336.603 189.202 337.024C188.834 337.44 188.346 337.752 187.738 337.96C187.13 338.168 186.464 338.272 185.738 338.272C184.917 338.272 184.192 338.155 183.562 337.92C182.933 337.685 182.397 337.376 181.954 336.992L183.226 335.568C183.557 335.824 183.93 336.037 184.346 336.208C184.768 336.379 185.226 336.464 185.722 336.464ZM194.886 336.464C195.307 336.464 195.646 336.397 195.902 336.264C196.163 336.131 196.294 335.931 196.294 335.664C196.294 335.483 196.243 335.331 196.142 335.208C196.041 335.085 195.846 334.968 195.558 334.856C195.27 334.744 194.843 334.611 194.278 334.456C193.761 334.317 193.302 334.141 192.902 333.928C192.507 333.715 192.198 333.44 191.974 333.104C191.755 332.768 191.646 332.349 191.646 331.848C191.646 331.341 191.787 330.891 192.07 330.496C192.353 330.101 192.769 329.792 193.318 329.568C193.867 329.339 194.539 329.224 195.334 329.224C196.091 329.224 196.75 329.323 197.31 329.52C197.875 329.712 198.363 329.957 198.774 330.256L197.766 331.744C197.414 331.525 197.035 331.352 196.63 331.224C196.225 331.091 195.817 331.024 195.406 331.024C194.995 331.024 194.689 331.08 194.486 331.192C194.289 331.299 194.19 331.461 194.19 331.68C194.19 331.824 194.241 331.949 194.342 332.056C194.449 332.157 194.646 332.264 194.934 332.376C195.222 332.483 195.643 332.616 196.198 332.776C196.747 332.931 197.225 333.109 197.63 333.312C198.041 333.515 198.358 333.787 198.582 334.128C198.806 334.464 198.918 334.909 198.918 335.464C198.918 336.083 198.734 336.603 198.366 337.024C197.998 337.44 197.51 337.752 196.902 337.96C196.294 338.168 195.627 338.272 194.902 338.272C194.081 338.272 193.355 338.155 192.726 337.92C192.097 337.685 191.561 337.376 191.118 336.992L192.39 335.568C192.721 335.824 193.094 336.037 193.51 336.208C193.931 336.379 194.39 336.464 194.886 336.464Z" fill="#F6DF8E"/>
<g clip-path="url(#clip0_132_401)">
<path d="M175.782 289.375C177.182 291.937 177.978 294.875 177.978 298C177.978 304.632 174.385 310.427 169.04 313.542L174.532 297.663C175.557 295.097 175.898 293.045 175.898 291.223C175.898 290.548 175.855 289.925 175.782 289.375ZM162.48 289.548C163.558 289.498 164.533 289.373 164.533 289.373C165.503 289.248 165.39 287.823 164.422 287.875C164.422 287.875 161.497 288.1 159.622 288.1C157.848 288.1 154.872 287.85 154.872 287.85C153.897 287.8 153.77 289.275 154.747 289.325C154.747 289.325 155.647 289.427 156.622 289.475L159.422 297.15L155.472 308.95L148.923 289.5C150.005 289.45 150.98 289.333 150.98 289.333C151.955 289.208 151.84 287.783 150.872 287.84C150.872 287.84 147.962 288.07 146.082 288.07C145.748 288.07 145.352 288.057 144.932 288.045C148.185 283.25 153.725 280.025 160 280.025C164.682 280.025 168.942 281.812 172.143 284.747C172.067 284.742 171.992 284.732 171.908 284.732C170.142 284.732 168.888 286.27 168.888 287.922C168.888 289.405 169.743 290.66 170.655 292.14C171.34 293.34 172.138 294.878 172.138 297.102C172.138 298.627 171.548 300.425 170.77 302.9L168.978 308.875L162.478 289.525L162.48 289.548ZM160 315.973C158.235 315.973 156.532 315.718 154.92 315.245L160.315 299.568L165.84 314.713C165.88 314.802 165.923 314.882 165.97 314.962C164.103 315.617 162.095 315.977 160 315.977M142.018 298C142.018 295.393 142.578 292.917 143.577 290.683L152.15 314.182C146.157 311.267 142.02 305.118 142.018 298ZM160 278C148.975 278 140 286.975 140 298C140 309.025 148.975 318 160 318C171.025 318 180 309.025 180 298C180 286.975 171.025 278 160 278Z" fill="#F6DF8E"/>
</g>
<path d="M137.438 165.106V160.434H134.75V165.106H132.126V154.018H134.75V158.274H137.438V154.018H140.062V165.106H137.438ZM143.77 161.594C143.828 162.058 143.948 162.434 144.13 162.722C144.316 163.005 144.554 163.213 144.842 163.346C145.13 163.474 145.452 163.538 145.81 163.538C146.199 163.538 146.575 163.474 146.938 163.346C147.3 163.218 147.65 163.048 147.986 162.834L149.002 164.21C148.602 164.552 148.116 164.832 147.546 165.05C146.98 165.269 146.335 165.378 145.61 165.378C144.639 165.378 143.826 165.186 143.17 164.802C142.514 164.413 142.02 163.88 141.69 163.202C141.359 162.525 141.194 161.746 141.194 160.866C141.194 160.029 141.354 159.269 141.674 158.586C141.994 157.898 142.46 157.352 143.074 156.946C143.692 156.536 144.447 156.33 145.338 156.33C146.148 156.33 146.85 156.504 147.442 156.85C148.039 157.197 148.5 157.696 148.826 158.346C149.156 158.997 149.322 159.778 149.322 160.69C149.322 160.834 149.316 160.989 149.306 161.154C149.3 161.32 149.29 161.466 149.274 161.594H143.77ZM145.338 158.026C144.884 158.026 144.519 158.189 144.242 158.514C143.964 158.84 143.796 159.36 143.738 160.074H146.858C146.852 159.456 146.732 158.96 146.498 158.586C146.263 158.213 145.876 158.026 145.338 158.026ZM150.821 165.106V163.41H151.941V158.29H150.821V156.61H153.869L154.333 158.522C154.637 157.792 155.024 157.248 155.493 156.89C155.968 156.533 156.547 156.354 157.229 156.354C157.517 156.354 157.773 156.378 157.997 156.426C158.221 156.469 158.432 156.53 158.629 156.61L157.861 158.698C157.707 158.656 157.552 158.624 157.397 158.602C157.243 158.581 157.072 158.57 156.885 158.57C156.331 158.57 155.843 158.797 155.421 159.25C155.005 159.704 154.688 160.28 154.469 160.978V163.41H156.149V165.106H150.821ZM156.573 160.162V157.682L156.949 156.61H158.629L158.157 160.162H156.573ZM163.585 156.33C164.46 156.33 165.204 156.517 165.817 156.89C166.43 157.264 166.9 157.789 167.225 158.466C167.55 159.138 167.713 159.928 167.713 160.834C167.713 161.778 167.548 162.592 167.217 163.274C166.892 163.952 166.422 164.472 165.809 164.834C165.196 165.197 164.454 165.378 163.585 165.378C162.721 165.378 161.98 165.2 161.361 164.842C160.748 164.485 160.276 163.968 159.945 163.29C159.62 162.613 159.457 161.8 159.457 160.85C159.457 159.949 159.62 159.16 159.945 158.482C160.276 157.805 160.748 157.277 161.361 156.898C161.98 156.52 162.721 156.33 163.585 156.33ZM163.585 158.194C163.068 158.194 162.684 158.408 162.433 158.834C162.188 159.256 162.065 159.928 162.065 160.85C162.065 161.789 162.188 162.469 162.433 162.89C162.684 163.312 163.068 163.522 163.585 163.522C164.102 163.522 164.484 163.312 164.729 162.89C164.98 162.469 165.105 161.784 165.105 160.834C165.105 159.917 164.98 159.248 164.729 158.826C164.484 158.405 164.102 158.194 163.585 158.194ZM177.133 156.61L174.341 160.37L177.365 165.106H174.485L171.693 160.45L174.485 156.61H177.133ZM171.597 152.97V165.106H169.069V153.234L171.597 152.97ZM180.76 156.61V162.426C180.76 162.837 180.835 163.12 180.984 163.274C181.139 163.429 181.352 163.506 181.624 163.506C181.886 163.506 182.147 163.424 182.408 163.258C182.67 163.093 182.888 162.869 183.064 162.586V156.61H185.592V165.106H183.384L183.272 164.114C182.984 164.53 182.606 164.845 182.136 165.058C181.667 165.272 181.176 165.378 180.664 165.378C179.843 165.378 179.232 165.141 178.832 164.666C178.432 164.186 178.232 163.544 178.232 162.738V156.61H180.76Z" fill="#F6DF8E"/>
<path d="M173.35 105H144.65C142.648 105 141.05 106.6 141.05 108.6V141.402C141.05 143.398 142.648 145 144.65 145H173.35C175.35 145 176.948 143.398 176.948 141.402V108.6C176.95 106.6 175.352 105 173.35 105ZM174.95 141.402C174.95 142.3 174.248 143.002 173.35 143.002H144.65C143.75 143.002 143.05 142.3 143.05 141.402V108.6C143.05 107.7 143.75 106.998 144.65 106.998H173.35C174.248 106.998 174.95 107.7 174.95 108.6V141.402ZM150.05 138.998L154.55 135L150.05 131V138.998ZM166.25 122.8C165.452 122 163.952 121 161.452 121C158.75 121 155.95 121.702 153.952 122.4V111H149.952V128.3L152.752 127C152.752 127 157.352 124.9 161.352 124.9C163.352 124.9 163.852 126 163.852 127V139H167.852V127C167.95 126.702 167.95 124.498 166.25 122.8ZM160.95 117.5H164.95C166.75 115.4 167.65 113.298 167.95 111H163.952C163.55 113.298 162.55 115.4 160.95 117.5Z" fill="#F6DF8E"/>
<path d="M295.081 0C308.851 0.0436967 320 11.2189 320 24.999V134.704C315.9 28.8137 290.941 0.157376 279 0H295.081Z" fill="#F6DF8E"/>
<path d="M24.9189 448C11.1491 447.956 5.81338e-07 436.781 0 423.001V313C4.08029 419.123 28.9196 447.842 40.8037 448H24.9189Z" fill="#F6DF8E"/>
<defs>
<clipPath id="clip0_132_401">
<rect width="40" height="40" fill="white" transform="translate(140 278)"/>
</clipPath>
</defs>
</svg>
